<?xml version="1.0" encoding="UTF-8"?> <svg xmlns="http://www.w3.org/2000/svg" id="Layer_1" data-name="Layer 1" viewBox="0 0 365.64 390.57"><defs><style>.cls-1{fill:#7b7a7a;}.cls-2{fill:#41b4de;}.cls-3{fill:#21305e;}.cls-4{fill:#fff;}.cls-5{fill:#b8dff6;}.cls-6{fill:#333232;}.cls-7{fill:#e83984;}.cls-8{fill:#231f20;}.cls-9{fill:#818080;}</style></defs><path class="cls-1" d="M359.05,302.62a59.39,59.39,0,0,0-.95-6.72l1-.19a63.6,63.6,0,0,1,1,6.82Z"></path><path class="cls-1" d="M94.43,390.56a79,79,0,0,1-50.9-139.47c.24-.16.43-.3.61-.44a29.16,29.16,0,0,0,2.71-44.48l-.42-.39.07-.06a53.15,53.15,0,0,1-14.81-57.45l-.2-.08.19-.47a10.66,10.66,0,0,0-2.53-11.62l-.37-.35.13-.13a62.42,62.42,0,0,1,77.22-97.13,12.36,12.36,0,0,0,6.55,1.5,12.72,12.72,0,0,0,10-4.74,53.39,53.39,0,0,1,89.9,28.17,14,14,0,0,0,27.3,2,53.59,53.59,0,1,1,82.45,61.34l-.59-.81a52.84,52.84,0,0,0-31.46-95,52.51,52.51,0,0,0-49.45,34.8,15,15,0,0,1-29.24-2.17,52.34,52.34,0,0,0-88.17-27.66A13.66,13.66,0,0,1,112.68,41a13.35,13.35,0,0,1-7.08-1.65A61.42,61.42,0,0,0,30,135.26l.33.31-.12.15a11.66,11.66,0,0,1,3.25,8.05,11.81,11.81,0,0,1-.64,3.84l.18.07-.17.46a52.15,52.15,0,0,0,14.81,57.23l.46.39-.12.1a29.82,29.82,0,0,1,8.93,21.41,30.21,30.21,0,0,1-9.82,22.25,27.67,27.67,0,0,1-2.3,1.91c-.22.17-.42.32-.63.46a78,78,0,0,0,50.3,137.67c42.31,0,77.31-34.4,78-76.69v-.48l.48,0,54.95-1.5,0,.49a65.8,65.8,0,0,0,124.25,27.09l.89.46a66.82,66.82,0,0,1-126.12-27l-53.49,1.46a79,79,0,0,1-79,77.2Z"></path><path class="cls-1" d="M357.67,327.27l-1-.28a64.87,64.87,0,0,0,2-9.58l1,.13A66.63,66.63,0,0,1,357.67,327.27Z"></path><path class="cls-1" d="M354.61,284.13a65.22,65.22,0,0,0-55-40.81l-.47,0v-.23a12,12,0,0,1-11.68-11.94l0-25.47h1l0,25.47a11,11,0,0,0,10.94,10.94h.2l.58-.07v.39a66.22,66.22,0,0,1,55.34,41.39Z"></path><circle class="cls-2" cx="200.04" cy="312.3" r="27.38"></circle><path class="cls-1" d="M200,340.18a27.88,27.88,0,1,1,27.88-27.88A27.92,27.92,0,0,1,200,340.18Zm0-54.75a26.88,26.88,0,1,0,26.88,26.87A26.9,26.9,0,0,0,200,285.43Z"></path><circle class="cls-3" cx="202.03" cy="191.33" r="75.17"></circle><path class="cls-1" d="M202,267a75.67,75.67,0,1,1,75.67-75.66A75.74,75.74,0,0,1,202,267Zm0-150.33a74.67,74.67,0,1,0,74.67,74.67A74.74,74.74,0,0,0,202,116.66Z"></path><circle class="cls-4" cx="93.89" cy="309.37" r="68.12"></circle><path class="cls-1" d="M93.89,378a68.62,68.62,0,1,1,68.62-68.62A68.71,68.71,0,0,1,93.89,378Zm0-136.24a67.62,67.62,0,1,0,67.62,67.62A67.7,67.7,0,0,0,93.89,241.75Z"></path><path class="cls-4" d="M201.42,172.06c1.07-2.6,1.93-4.92,3-7.17,3.56-7.79,8-15,15.11-20,6.11-4.35,12.86-6.08,20.22-3.72,5.09,1.64,7.57,5.75,6.35,10.15a5.89,5.89,0,0,1-4.76,4.65c-2.38.42-4.58-.09-6-2.16s-1.13-4.23.06-6.39c1.57-2.87.76-4.2-2.55-4.22A10.35,10.35,0,0,0,224.4,147,24.31,24.31,0,0,0,221,152.3c-3.61,7.94-4.73,16.51-6.33,25.23,4.34.61,8.35.6,12.21-1.14,2.9-1.31,3.18-2.21,1.72-5-1.56-3-.67-5.87,2.55-6.74a6,6,0,0,1,4.56.8c2.06,1.51,2.34,4,1.55,6.4-1,3-3.24,5-6,6.52-4.65,2.53-9.68,3.09-14.86,2.77l-2.3-.16c-1.26,6.36-2.4,12.6-3.77,18.8-2.8,12.73-7.7,24.45-17.31,33.69-5.74,5.52-12.4,9.15-20.68,8.71-5.94-.32-10.22-4-10.48-8.88a7.81,7.81,0,0,1,9.06-8.21,6,6,0,0,1,5.08,4.65,4.88,4.88,0,0,1-2.24,5.86c-.67.43-.89,1.56-1.31,2.37.94.36,1.94,1.12,2.82,1,3.89-.52,6.68-2.9,9-5.91,4.53-5.88,6.36-12.87,7.92-19.91,2.47-11.19,4.56-22.48,7.18-33.64.68-2.91.6-4.74-2-6.46-2.22-1.48-4-3.55-6.19-5.12a16.12,16.12,0,0,0-9.59-3.28,6.92,6.92,0,0,0-6.65,4.13c-1.32,2.68-.72,5.22,1.13,7.49,2.85,3.51,6.06,6.78,8.49,10.55a13.36,13.36,0,0,1-3.31,18.39,23.45,23.45,0,0,1-9,4.08,22,22,0,0,1-16.61-3.32c-3.86-2.49-6.43-5.86-6.32-10.73.06-2.39.76-4.56,3.1-5.62a5.48,5.48,0,0,1,5.93.76,6.08,6.08,0,0,1,2,6.59,12.18,12.18,0,0,1-1.44,3.19,2.62,2.62,0,0,0,.79,3.92c3.1,2.19,6.47,2.78,10,1.16,4.62-2.13,5.68-7.18,2.38-11-2-2.36-4.33-4.47-6.21-6.92-7.79-10.17-3.58-22.65,8.72-26.2a19.84,19.84,0,0,1,15.75,2.1,50.63,50.63,0,0,1,6.63,4.93C198.47,169.25,199.82,170.61,201.42,172.06Z"></path><path class="cls-1" d="M173.75,242.68c-.46,0-.92,0-1.38,0-6.16-.33-10.67-4.17-11-9.35a8.39,8.39,0,0,1,2.83-6.79,8.1,8.1,0,0,1,6.82-1.94,6.58,6.58,0,0,1,5.48,5,5.38,5.38,0,0,1-2.46,6.42,2.94,2.94,0,0,0-.76,1.3l-.15.38.46.23a3.2,3.2,0,0,0,1.62.53c3.25-.43,6-2.24,8.67-5.71,4.48-5.83,6.25-12.65,7.82-19.72,1.05-4.75,2.05-9.6,3-14.29,1.3-6.36,2.66-12.93,4.16-19.35.67-2.84.57-4.37-1.77-5.94a30.61,30.61,0,0,1-3.41-2.78,33.15,33.15,0,0,0-2.8-2.35,15.69,15.69,0,0,0-9.3-3.18,6.4,6.4,0,0,0-6.19,3.85c-1.15,2.34-.79,4.68,1.07,7,.9,1.11,1.84,2.19,2.78,3.28a66.92,66.92,0,0,1,5.74,7.31,13.86,13.86,0,0,1-3.44,19.06,24.19,24.19,0,0,1-9.2,4.17,22.57,22.57,0,0,1-17-3.39c-4.51-2.91-6.66-6.56-6.55-11.17.08-3.08,1.19-5.06,3.4-6.05a6,6,0,0,1,6.44.82,6.57,6.57,0,0,1,2.16,7.1,12.89,12.89,0,0,1-1.5,3.32,2.14,2.14,0,0,0,.65,3.27c3.13,2.2,6.31,2.57,9.47,1.11a6.57,6.57,0,0,0,3.88-4.51,6.66,6.66,0,0,0-1.67-5.76c-.82-1-1.71-1.9-2.57-2.8-1.24-1.32-2.53-2.68-3.65-4.14-3.8-4.95-5-10.78-3.28-16s6.19-9.25,12.25-11a20.37,20.37,0,0,1,16.13,2.14,39.65,39.65,0,0,1,5.46,4l1.25,1c1,.82,2,1.71,3,2.66l.93.87c.24-.61.48-1.19.71-1.77.66-1.66,1.29-3.23,2-4.76,3-6.48,7.37-14.63,15.27-20.24,6.7-4.76,13.65-6,20.66-3.78,5.31,1.7,8,6,6.68,10.75a6.37,6.37,0,0,1-5.15,5c-2.84.5-5.09-.32-6.53-2.37s-1.41-4.29,0-6.91c.68-1.23.87-2.16.57-2.67s-1.23-.8-2.68-.81a9.92,9.92,0,0,0-8,3.7,23.53,23.53,0,0,0-3.3,5.15c-3,6.69-4.29,13.74-5.6,21.2-.2,1.13-.4,2.26-.61,3.4,4.81.61,8.25.25,11.42-1.18,1.4-.62,2-1.1,2.23-1.64s0-1.32-.74-2.71a5.64,5.64,0,0,1-.44-4.86,4.76,4.76,0,0,1,3.3-2.59,6.48,6.48,0,0,1,5,.88c2.05,1.51,2.68,4.05,1.73,7s-2.95,5-6.2,6.8c-4.24,2.31-9,3.21-15.14,2.83l-1.52-.11-.33,0q-.56,2.78-1.09,5.54c-.81,4.22-1.66,8.59-2.6,12.84-3.27,14.85-8.81,25.64-17.45,33.94C187.22,239.76,180.77,242.68,173.75,242.68Zm-4.1-17.25a7.17,7.17,0,0,0-4.74,1.82,7.45,7.45,0,0,0-2.5,6c.26,4.64,4.38,8.1,10,8.4,7.27.39,13.91-2.42,20.32-8.58,8.48-8.15,13.94-18.78,17.17-33.43.93-4.24,1.77-8.59,2.59-12.81.39-2,.77-4,1.17-6l.09-.43,1.21.08,1.52.11c5.89.37,10.52-.49,14.59-2.71,3.06-1.67,4.88-3.65,5.73-6.24s.31-4.6-1.37-5.84a5.55,5.55,0,0,0-4.14-.72,3.82,3.82,0,0,0-2.65,2,4.68,4.68,0,0,0,.42,4c.72,1.4,1.13,2.54.79,3.5s-1.34,1.59-2.76,2.23c-3.46,1.56-7.2,1.91-12.48,1.18l-.52-.08.09-.51c.24-1.3.47-2.61.7-3.9,1.33-7.53,2.58-14.64,5.68-21.45a24.42,24.42,0,0,1,3.44-5.37,10.91,10.91,0,0,1,8.77-4.06c1.88,0,3,.44,3.55,1.31s.32,2.05-.56,3.65c-1.26,2.28-1.29,4.15-.09,5.86s3.07,2.39,5.54,2a5.38,5.38,0,0,0,4.36-4.28c1.16-4.18-1.26-8-6-9.54-6.69-2.15-13.35-.93-19.77,3.64-7.71,5.48-12,13.48-14.94,19.84-.69,1.52-1.32,3.07-2,4.72-.32.79-.64,1.6-1,2.44l-.27.66-.53-.48c-.51-.46-1-.92-1.47-1.36-1-.93-1.94-1.81-2.94-2.61l-1.25-1a39.23,39.23,0,0,0-5.32-3.87,19.39,19.39,0,0,0-15.36-2c-5.74,1.65-10,5.43-11.58,10.35s-.47,10.38,3.12,15.06a53.14,53.14,0,0,0,3.59,4.06c.87.92,1.76,1.86,2.6,2.84a7.69,7.69,0,0,1,1.88,6.63,7.53,7.53,0,0,1-4.43,5.2c-3.5,1.62-7,1.22-10.47-1.21a3.12,3.12,0,0,1-.93-4.59,11.58,11.58,0,0,0,1.38-3.05,5.56,5.56,0,0,0-1.81-6.09,5,5,0,0,0-5.4-.68c-1.85.83-2.74,2.48-2.81,5.17-.1,4.22,1.89,7.6,6.09,10.3a21.65,21.65,0,0,0,16.24,3.25,23.05,23.05,0,0,0,8.81-4,12.89,12.89,0,0,0,3.19-17.72,66.36,66.36,0,0,0-5.66-7.2c-1-1.09-1.89-2.19-2.8-3.3-2.09-2.58-2.5-5.35-1.19-8a7.45,7.45,0,0,1,7.07-4.41h0a16.65,16.65,0,0,1,9.88,3.37,33.8,33.8,0,0,1,2.88,2.42,31.15,31.15,0,0,0,3.29,2.69c2.79,1.86,2.92,3.89,2.2,7-1.51,6.41-2.86,13-4.17,19.32-1,4.7-2,9.55-3,14.31-1.52,6.89-3.4,14.12-8,20.11-2.84,3.69-5.8,5.62-9.33,6.1a4,4,0,0,1-2.2-.64,9.2,9.2,0,0,0-.86-.39l-.53-.2.27-.5a7.94,7.94,0,0,0,.33-.78,3.57,3.57,0,0,1,1.15-1.78,4.4,4.4,0,0,0,2-5.32,5.55,5.55,0,0,0-4.68-4.28A7.64,7.64,0,0,0,169.65,225.43Z"></path><path class="cls-4" d="M121.12,342.33c-.06.18-.17.29-.23.46s-.17.29-.28.45a.92.92,0,0,0-.18.23.8.8,0,0,1-.22.28L120,344a5.27,5.27,0,0,1-4.6,1.65,1.93,1.93,0,0,1-.52-.11,4.08,4.08,0,0,1-1-.34c-.17-.06-.34-.17-.51-.23a2.58,2.58,0,0,1-.51-.28l-.51-.35c-.06-.06-.17-.11-.23-.16l-.34-.35a2,2,0,0,1-.34-.4.55.55,0,0,1-.17-.23,1.1,1.1,0,0,1-.29-.45c-.11-.16-.17-.34-.28-.51s-.17-.34-.28-.51-.18-.34-.23-.51a11.44,11.44,0,0,1-.68-1.71,1.26,1.26,0,0,1-.12-.4,6.15,6.15,0,0,1-.28-1.08,2.89,2.89,0,0,0-.28-.51c-.06-.05-.57-.62-.63-.68a2.66,2.66,0,0,0-1.36-.57,2,2,0,0,0,.73-.13.47.47,0,0,1-.16,0h-.57c-.17,0-3.24.62-4.21.91a4.09,4.09,0,0,1-.9.22c-1.14.34-2.22.57-3.36.85-.06,0-.11.06-.23.06s-.11.06-.22.06a24.71,24.71,0,0,1-3,.51,30.2,30.2,0,0,1-3.18.34c-.28,0-.57.06-.91.06-1.65.05-3.24,0-4.89-.11h-.39c-.23,0-.46-.06-.69-.06,0,0-4.09-.51-5.85-1.48a6.11,6.11,0,0,1-2.16-2.44,7.16,7.16,0,0,1-.63-1.48,12.4,12.4,0,0,1-.28-1.31v-.57c-1.13-11-2-29.95,1.7-39.89a8.61,8.61,0,0,1,2.72-5.54,8.5,8.5,0,0,1,14.17,5,10.5,10.5,0,0,1,.11,1.3,3.55,3.55,0,0,1-.06.8c-.11.57-.23,1.2-.39,1.87A29.89,29.89,0,0,1,92.31,301c-.18.33-.57,1.3-.75,1.64-2.55,6.2-5,12.62-5,19.78,0,1.31.05,2.73.16,4.09a2.32,2.32,0,0,0,1.54,1.94s3.07.85,4.15,1.07a24.29,24.29,0,0,0,3.13.74c1,.12,2.1.29,3.18.4h.39c2.16.29,4.32.51,6.26.8.62.06,1.25.17,1.81.22.23.06.52.06.75.12a1.8,1.8,0,0,1,.33.1h0c.6.08,1.16.16,1.63.24,1,.12,1.82.28,2.39.34h.51c.05,0,.11,0,.11.06s1.93.45,3.7,1c.28.12.51.17.79.29a4.16,4.16,0,0,1,.91.39c.17.06.34.18.46.23a2,2,0,0,1,.34.23c.05.06.22.17.28.23l.28.28A6.07,6.07,0,0,1,121.12,342.33Z"></path><path class="cls-1" d="M116.13,346.18a7.67,7.67,0,0,1-.82-.05,1.79,1.79,0,0,1-.61-.14,3.89,3.89,0,0,1-1.08-.36,1.06,1.06,0,0,1-.25-.12,1.76,1.76,0,0,0-.2-.09,2.91,2.91,0,0,1-.63-.34l-.51-.34-.08-.06a1,1,0,0,1-.22-.17l-.35-.35a3.35,3.35,0,0,1-.4-.47.92.92,0,0,1-.16-.21,1.62,1.62,0,0,1-.32-.52c-.06-.09-.1-.18-.15-.26a1.28,1.28,0,0,0-.11-.2,1.46,1.46,0,0,1-.16-.3A2.25,2.25,0,0,0,110,342l-.06-.12a1.42,1.42,0,0,0-.08-.18,2.41,2.41,0,0,1-.15-.33,13.2,13.2,0,0,1-.68-1.71l0-.1a1.18,1.18,0,0,1-.1-.36,6.56,6.56,0,0,1-.29-1.1s-.11-.18-.2-.3l-.27-.29-.3-.33a2.12,2.12,0,0,0-1.07-.42v-.11c-.46.08-3.1.62-4,.89a5.5,5.5,0,0,1-1,.24c-.77.23-1.58.42-2.37.61l-1,.23a1,1,0,0,1-.24.07,1,1,0,0,1-.24.06,24.71,24.71,0,0,1-3,.51,31.28,31.28,0,0,1-3.2.34c-.15,0-.27,0-.39,0a4.68,4.68,0,0,1-.55,0c-1.53.05-3.1,0-4.92-.11h-.36a2.85,2.85,0,0,1-.41,0l-.28,0c-.23,0-4.26-.54-6.09-1.54a6.5,6.5,0,0,1-2.35-2.63,6.7,6.7,0,0,1-.64-1.49l0-.12a10.5,10.5,0,0,1-.29-1.37v-.63c-.67-6.47-2.55-28.62,1.71-40a9,9,0,0,1,9-8.17,9,9,0,0,1,8.9,7.64,10.12,10.12,0,0,1,.12,1.38,4,4,0,0,1-.07.9l-.08.39c-.09.47-.19,1-.32,1.5a29.85,29.85,0,0,1-1.85,5.9c-.1.18-.24.52-.38.84s-.28.65-.37.82c-2.6,6.3-4.94,12.56-4.94,19.55,0,1.3.05,2.7.16,4.05a1.8,1.8,0,0,0,1.2,1.51s3,.83,4.09,1.05l1,.27a13.86,13.86,0,0,0,2.08.47L97,330c.59.08,1.19.16,1.8.22h.34l2.73.34c1.25.15,2.46.29,3.6.46l.93.12c.29,0,.58.08.86.1a2.59,2.59,0,0,0,.38.06l.44.07.37.11c.61.08,1.13.15,1.57.23s1,.14,1.47.21.64.1.89.12h.46a.61.61,0,0,1,.38.11c.5.12,2.1.52,3.58,1l.41.15.42.15a5.37,5.37,0,0,1,.94.41,2.4,2.4,0,0,1,.36.18l.1.06a2,2,0,0,1,.47.31l.11.09.18.14.27.28a6.59,6.59,0,0,1,1.54,7.66,2.09,2.09,0,0,1-.15.3.88.88,0,0,0-.07.12l-.06.12-.11.19c0,.08-.1.17-.17.27s-.12.12-.14.17a1.5,1.5,0,0,1-.32.41l-.23.23A5.75,5.75,0,0,1,116.13,346.18Zm-3.52-2.25.49.33a3.31,3.31,0,0,0,.39.22,2.33,2.33,0,0,1,.33.14l.18.09a3.36,3.36,0,0,0,1,.31,1.64,1.64,0,0,0,.43.11,4.83,4.83,0,0,0,4.24-1.49l.24-.24c.1-.1.11-.11.13-.15a1.19,1.19,0,0,1,.26-.36l.07-.14.12-.19a1.91,1.91,0,0,1,.13-.25.88.88,0,0,0,.07-.13l0-.06a5.63,5.63,0,0,0-1.33-6.54l-.36-.34a1.45,1.45,0,0,1-.23-.19l-.19-.11-.15-.08a1.07,1.07,0,0,0-.24-.12l-.1-.05a3.69,3.69,0,0,0-.81-.35l-.4-.14c-.13-.05-.27-.09-.42-.16-1.69-.54-3.6-1-3.62-1l-.51,0c-.32,0-.64-.08-1-.14s-.89-.14-1.44-.2l-1.65-.24-.2-.06-.2-.06-.31,0-.44-.07-.83-.1c-.3,0-.6-.09-.91-.11-1.15-.18-2.36-.32-3.6-.47l-2.67-.34h-.33c-.67-.07-1.28-.15-1.88-.23l-1.36-.17a12.77,12.77,0,0,1-2.24-.5c-.33-.09-.64-.18-1-.25-1.06-.22-4-1-4.16-1.08a2.82,2.82,0,0,1-1.9-2.36c-.11-1.39-.17-2.82-.17-4.15,0-7.18,2.38-13.54,5-20,.1-.19.23-.49.36-.8s.31-.7.4-.88a29.72,29.72,0,0,0,1.78-5.68c.13-.53.22-1,.31-1.47l.08-.4a3.12,3.12,0,0,0,0-.7,8.27,8.27,0,0,0-.11-1.23,8,8,0,0,0-13.33-4.67,8,8,0,0,0-2.56,5.21l0,.13c-4.21,11.16-2.34,33.18-1.67,39.67v.62c.05.31.16.75.27,1.18a5.94,5.94,0,0,0,.56,1.34,5.79,5.79,0,0,0,2,2.27c1.67.91,5.65,1.42,5.69,1.42l.34,0a2.4,2.4,0,0,0,.28,0h.39a48.59,48.59,0,0,0,4.88.11,3.23,3.23,0,0,0,.46,0l.46,0a28.49,28.49,0,0,0,3.1-.34,21.29,21.29,0,0,0,3-.5h.12s.1-.06.22-.06a.34.34,0,0,1,.15-.05l.92-.22c.81-.2,1.57-.38,2.37-.62a5.2,5.2,0,0,0,.88-.21c.93-.28,4.09-.94,4.38-.94h.57l.09.24a3,3,0,0,1,1,.56l.36.39.3.32a2.55,2.55,0,0,1,.4.71,8.2,8.2,0,0,0,.29,1.08l0,.15a.66.66,0,0,1,0,.11l0,.13a14.59,14.59,0,0,0,.65,1.65c0,.13.09.19.12.26l.12.24c0,.09.1.18.14.27a1,1,0,0,0,.11.2,2.69,2.69,0,0,1,.16.29,1.32,1.32,0,0,0,.12.2l.06.13a.53.53,0,0,0,.15.25l.1.14a.35.35,0,0,0,.08.1,5.06,5.06,0,0,0,.33.39l.36.35A1.09,1.09,0,0,1,112.61,343.93Z"></path><path class="cls-3" d="M172.61,284.68h0a3.66,3.66,0,0,1,2,4.77l-20.06,48.48a3.62,3.62,0,0,1-5.06,1.82l-.34-.17a3.7,3.7,0,0,1-1.65-4.6l20.4-48.25A3.58,3.58,0,0,1,172.61,284.68Z"></path><path class="cls-1" d="M151.17,340.69a4.05,4.05,0,0,1-1.93-.5l-.32-.16a4.2,4.2,0,0,1-1.89-5.24l20.4-48.26a4.06,4.06,0,0,1,2.15-2.27,4.15,4.15,0,0,1,3.21-.05h0a4.17,4.17,0,0,1,2.28,5.43L155,338.12a4.19,4.19,0,0,1-2.49,2.34A4.15,4.15,0,0,1,151.17,340.69Zm20.06-55.78a3.07,3.07,0,0,0-2.87,2L148,335.17a3.19,3.19,0,0,0,1.43,4l.32.16a3,3,0,0,0,2.48.22,3.24,3.24,0,0,0,1.9-1.78l20.06-48.48a3.17,3.17,0,0,0-1.71-4.12A3.36,3.36,0,0,0,171.23,284.91Z"></path><path class="cls-3" d="M108.22,343.79h37a3.43,3.43,0,0,0,3.41-3.41h0a3.42,3.42,0,0,0-3.41-3.41h-37a3.41,3.41,0,0,0-3.41,3.41h0A3.42,3.42,0,0,0,108.22,343.79Z"></path><path class="cls-1" d="M145.22,344.29h-37a3.91,3.91,0,0,1,0-7.82h37a3.91,3.91,0,1,1,0,7.82Zm-37-6.82a2.91,2.91,0,0,0,0,5.82h37a2.91,2.91,0,0,0,0-5.82Z"></path><path class="cls-4" d="M153.19,343l-1,1.71c-.34.57-.68,1.08-1,1.65a9.36,9.36,0,0,1-.63.91c-.62,1-1.31,1.87-2,2.78-.45.63-1,1.25-1.42,1.82h0c-1.08,1.36-2.21,2.67-3.47,4q-1.53,1.69-3.23,3.24a49,49,0,0,1-5.29,4.43,71.36,71.36,0,0,1-10.06,6.37c-.62.34-1.25.62-1.88,1A67.15,67.15,0,0,1,98,377.36c-1.19.05-2.44.11-3.64.11h-.74c-1.25,0-2.5-.06-3.8-.11-.34,0-.69-.06-1-.06s-.56-.06-.91-.06c-.17,0-.39-.05-.56-.05a5.3,5.3,0,0,1-.91-.12A1.07,1.07,0,0,1,86,377a3.69,3.69,0,0,1-.8-.12c-.34,0-.62,0-1-.11-.17,0-.29-.06-.46-.06s-.51-.05-.74-.11-.22-.06-.34-.06a8.32,8.32,0,0,1-1.19-.23,11.5,11.5,0,0,1-1.42-.28,4.75,4.75,0,0,1-1-.23c-.91-.17-1.76-.39-2.67-.62-.4-.12-.8-.23-1.25-.34s-.8-.23-1.25-.34-.8-.23-1.14-.35c-1.3-.39-2.61-.9-3.92-1.36-1-.4-2-.79-3-1.25l-.34-.17c-.34-.17-.68-.28-1-.45a29.06,29.06,0,0,1-4.1-4.21,31.09,31.09,0,0,1-2.21-3.07c-.06-.06-.12-.17-.17-.23-5.18-8.52-5.69-19.66,2.67-31a8.85,8.85,0,0,1,2.67-2.33h0a4.52,4.52,0,0,1,1.53-.62c.06,0,.12-.06.17-.06h0a7.48,7.48,0,0,1,1.59-.28L86,327.63a6,6,0,0,1,1.47,0c.4.05.74.11,1.08.17a3.5,3.5,0,0,1,.74.23,2,2,0,0,1,.63.28,6.7,6.7,0,0,1,2.27,1.53,63.2,63.2,0,0,0,11.65,8.87h0a14.22,14.22,0,0,0,1.65.85h0a25.9,25.9,0,0,0,11.82,3.24h35.86Z"></path><path class="cls-1" d="M94.31,378h-.74c-1.2,0-2.4-.05-3.66-.11h-.17a2.39,2.39,0,0,1-.53,0c-.3,0-.6,0-.93-.06s-.49,0-.8-.06-.71-.06-1.06-.12l-.15,0a1.33,1.33,0,0,1-.41-.06,3.1,3.1,0,0,1-.69-.1l-.11,0-.43-.05-.52-.06a.84.84,0,0,1-.24,0l-.13,0h-.12a1.45,1.45,0,0,0-.3-.05l-.39-.05-.22,0-.12,0a8.5,8.5,0,0,1-1.26-.25,11.3,11.3,0,0,1-1.4-.27,5.33,5.33,0,0,1-1-.25c-.67-.12-1.38-.3-2.13-.49l-.48-.12c-.41-.11-.8-.23-1.25-.34s-.8-.23-1.25-.34l-1.17-.35c-.88-.27-1.77-.59-2.64-.9l-1.29-.47c-1-.4-2.07-.8-3.06-1.27l-.35-.17-.49-.22q-.27-.11-.54-.24l-.1-.06A29.65,29.65,0,0,1,60,367,31.87,31.87,0,0,1,57.76,364l-.09-.13-.1-.14c-5.9-9.72-4.92-21.23,2.69-31.58a9.3,9.3,0,0,1,2.84-2.48,5,5,0,0,1,1.67-.67.46.46,0,0,1,.16-.06,7.64,7.64,0,0,1,1.57-.28L86,327.13a6.86,6.86,0,0,1,1.57,0l1.1.17.16,0a3.94,3.94,0,0,1,.67.21,2.67,2.67,0,0,1,.69.31,7.17,7.17,0,0,1,2.39,1.63,62.77,62.77,0,0,0,11.55,8.79l.28.15a13.38,13.38,0,0,0,1.3.67,25.69,25.69,0,0,0,11.64,3.2h36.36v.81l-1.09,1.82c-.17.29-.35.57-.52.84s-.34.53-.5.81a9.65,9.65,0,0,1-.67,1c-.61.95-1.31,1.87-2,2.77-.38.52-.8,1.05-1.19,1.54l-.24.29c-1.1,1.39-2.24,2.7-3.49,4a43.86,43.86,0,0,1-3.27,3.27,50.14,50.14,0,0,1-5.33,4.46,71,71,0,0,1-10.12,6.41c-.31.17-.63.33-1,.49s-.61.3-.92.47A67.63,67.63,0,0,1,98,377.86C96.66,377.92,95.48,378,94.31,378Zm-10.5-1.74.26,0,.13,0,.52.06.52.06.14,0a3,3,0,0,0,.58.08h.12l.1.05h.18l.23,0c.37.07.66.06,1,.12s.53,0,.76.06.61,0,.92.05c.15,0,.31,0,.47,0H90c1.26.05,2.44.1,3.62.1h.74c1.15,0,2.32-.05,3.62-.11a66.68,66.68,0,0,0,25-6.49c.29-.16.61-.32.93-.48l.92-.47a71.59,71.59,0,0,0,10-6.33,49.49,49.49,0,0,0,5.24-4.39,42.39,42.39,0,0,0,3.21-3.22c1.24-1.3,2.37-2.59,3.45-4l.24-.3c.38-.48.8-1,1.17-1.5.66-.89,1.35-1.8,2-2.77a7.86,7.86,0,0,0,.62-.89c.17-.29.34-.56.52-.83l.5-.82.67-1.12H117.33a26.57,26.57,0,0,1-12-3.29,11.26,11.26,0,0,1-1.38-.71l-.28-.15a63.8,63.8,0,0,1-11.76-8.94,6.11,6.11,0,0,0-2.11-1.44l-.09,0a1.66,1.66,0,0,0-.47-.22l-.1,0a3.4,3.4,0,0,0-.51-.16l-.13,0-1-.16a6,6,0,0,0-1.34,0L66.67,329.6a7.73,7.73,0,0,0-1.47.26l0,0a.67.67,0,0,1-.28.07,4.32,4.32,0,0,0-1.27.55,8.2,8.2,0,0,0-2.54,2.2c-10,13.67-6,24.93-2.66,30.44a1.47,1.47,0,0,1,.1.13l.09.12a29,29,0,0,0,2.18,3,27.2,27.2,0,0,0,4,4.1l.43.19.54.24.34.17c1,.45,2,.85,3,1.23l1.29.47c.85.3,1.74.62,2.6.89l1.13.34,1.25.34c.44.11.85.22,1.25.34l.46.11c.74.19,1.43.36,2.16.5a5.7,5.7,0,0,0,1,.23c.6.14,1,.23,1.41.28a10,10,0,0,0,1.2.23l.22,0,.18,0a1.45,1.45,0,0,0,.3.05Z"></path><path class="cls-5" d="M96.45,304.8c-3.12,4-4.71,17.34-6.59,24.61a8,8,0,0,1-1.59,3.18,6.57,6.57,0,0,1-.63.69A7.68,7.68,0,0,1,85,335c-3.29,1.19-8.75,2.22-17,1.31a7.17,7.17,0,0,1-3.86-1.65,8,8,0,0,1-3-5.85c-.8-12.39-1.53-39.39,5.29-53,1.76-3.58,7-11.48,11-11.48,2.22,0,4.27,5.79,6.88,7.78l1,.86a17.33,17.33,0,0,1,4.21,5.51c1.36,3.07,2.44,7.27,4.83,10.51,1.76,2.39,3.81,4.61,4.15,7.85A11.18,11.18,0,0,1,96.45,304.8Z"></path><path class="cls-1" d="M74,337.13a56.46,56.46,0,0,1-6.07-.34A7.77,7.77,0,0,1,63.79,335a8.58,8.58,0,0,1-3.13-6.21C59.93,317.46,59,289.55,66,275.59c1.81-3.68,7.2-11.75,11.41-11.75,1.53,0,2.74,1.87,4.14,4a16.13,16.13,0,0,0,3,3.86l1,.86A17.88,17.88,0,0,1,90,278.28c.42.93.8,2,1.21,3a30.31,30.31,0,0,0,3.57,7.39l.77,1c1.56,2,3.17,4.16,3.48,7.07a11.75,11.75,0,0,1-2.15,8.32h0c-2.1,2.67-3.54,10-4.81,16.5-.58,2.93-1.12,5.7-1.69,7.93A8.62,8.62,0,0,1,88,333.63a8.3,8.3,0,0,1-2.84,1.82A32.81,32.81,0,0,1,74,337.13Zm3.41-72.29c-3.49,0-8.65,7.41-10.52,11.2-6.89,13.74-6,41.44-5.23,52.71a7.56,7.56,0,0,0,2.77,5.5A6.68,6.68,0,0,0,68,335.79c8.38.93,13.74-.18,16.76-1.28a7,7,0,0,0,2.49-1.59,6.65,6.65,0,0,0,.58-.63,7.54,7.54,0,0,0,1.51-3c.56-2.2,1.1-5,1.68-7.87,1.35-6.92,2.75-14.06,5-16.93h0a10.74,10.74,0,0,0,1.94-7.6c-.27-2.63-1.73-4.54-3.28-6.57l-.77-1a30.94,30.94,0,0,1-3.71-7.64c-.4-1.06-.78-2.07-1.18-3A16.67,16.67,0,0,0,85,273.35l-1-.84a16.73,16.73,0,0,1-3.25-4.09C79.57,266.66,78.39,264.84,77.41,264.84Z"></path><ellipse class="cls-6" cx="82.07" cy="250.53" rx="9.95" ry="16.25"></ellipse><path class="cls-4" d="M72,271a4.58,4.58,0,0,1-.69-1.87c0-1.65,1.27-1.87,2.33-4.44a15.72,15.72,0,0,0,1-4.94c0-.34,0-.63,0-1a11.06,11.06,0,0,0-1.19-4.77,4,4,0,0,0-.45-.74L73,253.2h0l-.06-.12c-.06-.05-.11-.17-.17-.22l-.06-.06v-.06c0-.05,0-.05,0-.11l-.06-.12c-.06,0-.11-.17-.23-.28l0-.06a3.71,3.71,0,0,1-.52-1.47,4.18,4.18,0,0,1,1.43-3.87,5.48,5.48,0,0,1,1-.68,4.69,4.69,0,0,1,1.25-.4,4.63,4.63,0,0,1,2.33.29,6.33,6.33,0,0,1,1.08.62,7,7,0,0,0,3.75.51,5.21,5.21,0,0,0,1.88-.62,4.87,4.87,0,0,0,1.47-1.08,4.55,4.55,0,0,0,.8-1,5.7,5.7,0,0,0,.91-1.87l.06-.06A7.07,7.07,0,0,1,89,241.15l.34-.34a8.45,8.45,0,0,1,1.88-1.31,7.44,7.44,0,0,1,2.38-.8,2.77,2.77,0,0,0,.29,0,8.26,8.26,0,0,1,3.92.28l.11.06.06.11a13.73,13.73,0,0,1,.91,4.09,10.76,10.76,0,0,1-.06,2.28,13.15,13.15,0,0,1-.91,3.86c.34,1.14.85,2.84,1.42,4.61l.06.22.17.63c.4,1.19.63,2,.63,2l.11.34-1.82.11L97.42,260c-.11,3.18-2,5.85-5.17,6.25H92a.7.7,0,0,0-.34.06h-.17a6.09,6.09,0,0,0-1.48.39,6.48,6.48,0,0,0-2.15,1.42,5.8,5.8,0,0,0-1.26,2c-1,1.94-.56,2.56-1.47,3.58a5.46,5.46,0,0,1-1.76,1.14,7.58,7.58,0,0,1-3.59.57A9.73,9.73,0,0,1,75,273.94,7.31,7.31,0,0,1,72,271Z"></path><path class="cls-1" d="M80.37,275.94l-.66,0a10.35,10.35,0,0,1-4.94-1.55,7.67,7.67,0,0,1-3.19-3.09h0a5,5,0,0,1-.74-2.07,3.25,3.25,0,0,1,1-2.38,8.91,8.91,0,0,0,1.39-2.29,15.51,15.51,0,0,0,1-4.78,4.32,4.32,0,0,1,0-.5c0-.14,0-.28,0-.44a10.48,10.48,0,0,0-1.13-4.53,3.49,3.49,0,0,0-.42-.68l-.13-.25-.08-.11-.14-.15-.12-.31-.06-.08-.1-.13-.12-.13a4.18,4.18,0,0,1-.59-1.67,4.62,4.62,0,0,1,1.59-4.33,6.08,6.08,0,0,1,1.12-.75,5.22,5.22,0,0,1,1.42-.44,5.11,5.11,0,0,1,2.57.31,7.18,7.18,0,0,1,1.17.67,6.52,6.52,0,0,0,3.42.44,4.79,4.79,0,0,0,1.68-.56,5.62,5.62,0,0,0,2.1-1.87,5.09,5.09,0,0,0,.85-1.75l0-.13.09-.1a8.31,8.31,0,0,1,1.28-1.5l.32-.32a9.11,9.11,0,0,1,2-1.4,7.83,7.83,0,0,1,2.54-.84l.36-.06a8.64,8.64,0,0,1,4.07.3l.34.17.13.26a14.3,14.3,0,0,1,1,4.28,11.37,11.37,0,0,1-.06,2.38,14.1,14.1,0,0,1-.88,3.82c.34,1.13.83,2.75,1.37,4.42l.14.56.09.33c.4,1.17.63,2,.63,2l.31.94-2.15.13-.93,2.41c-.17,3.58-2.41,6.25-5.61,6.64h-.46l-.11.06h-.29a5.74,5.74,0,0,0-1.3.36,5.93,5.93,0,0,0-2,1.3A5.3,5.3,0,0,0,87,270.33a8.8,8.8,0,0,0-.7,1.93,3.68,3.68,0,0,1-.86,1.79,6.07,6.07,0,0,1-1.93,1.26A8.07,8.07,0,0,1,80.37,275.94Zm-7.92-5.14a6.85,6.85,0,0,0,2.81,2.7,9.41,9.41,0,0,0,4.51,1.42,7.26,7.26,0,0,0,3.36-.53,5,5,0,0,0,1.6-1,2.67,2.67,0,0,0,.62-1.34,9.34,9.34,0,0,1,.77-2.11,5.94,5.94,0,0,1,1.34-2.12,7,7,0,0,1,2.33-1.53,6.43,6.43,0,0,1,1.61-.43h.12a1.27,1.27,0,0,1,.44-.06h.29c2.7-.34,4.56-2.61,4.67-5.77l0-.16,1.2-3.09,1.5-.09c-.1-.33-.29-.94-.54-1.71,0-.15-.07-.24-.1-.34l-.09-.32,0-.23c-.56-1.74-1.08-3.44-1.42-4.58l0-.17.07-.17a12.58,12.58,0,0,0,.87-3.72,9.66,9.66,0,0,0,.06-2.19,13,13,0,0,0-.84-3.86,7.86,7.86,0,0,0-3.58-.23,1.36,1.36,0,0,1-.37.06,7.24,7.24,0,0,0-2.15.74,8.2,8.2,0,0,0-1.78,1.24l-.32.32a6.65,6.65,0,0,0-1.13,1.35l0,0a6.66,6.66,0,0,1-.95,1.91,4.87,4.87,0,0,1-.85,1A5.21,5.21,0,0,1,84.8,247a5.75,5.75,0,0,1-2,.67,7.61,7.61,0,0,1-4-.55,6.08,6.08,0,0,0-1.07-.62,4,4,0,0,0-2.06-.25,4.3,4.3,0,0,0-1.12.36,4.77,4.77,0,0,0-.9.61,3.63,3.63,0,0,0-1.25,3.4,3.18,3.18,0,0,0,.43,1.28.85.85,0,0,1,.2.23l.18.28a.53.53,0,0,1,.08.17l.08.11.23.4a2.89,2.89,0,0,1,.48.8,11.33,11.33,0,0,1,1.22,4.9,4.61,4.61,0,0,1,0,.56c0,.14,0,.29,0,.44a16.48,16.48,0,0,1-1.06,5.14,9.94,9.94,0,0,1-1.54,2.52,2.38,2.38,0,0,0-.76,1.7A4.31,4.31,0,0,0,72.45,270.8Zm-.19-18s0,0,0,.06l0-.06h0Z"></path><path class="cls-5" d="M85.09,307.81a11.23,11.23,0,0,1-9.27-10,11.39,11.39,0,0,1,7.05-11.71A138.71,138.71,0,0,0,85.09,307.81Z"></path><path class="cls-6" d="M87.7,341.34c-1.31.57.46.23,1.25.29s1.71.17,2.56.28c1.65.17,3.13-.11,4.72-.06,5,.23,6.13,5.86,10.34,7.56s5.85-4.94,1.82-6.59c.74.29.17-.17-.23-.74a10.24,10.24,0,0,0-.91-1.25,17.12,17.12,0,0,0-3.35-3.12,13.08,13.08,0,0,0-8-2.73,32.53,32.53,0,0,1-5.29-.06c-2.22-.23-4.21-.45-6.25.46-4.09,1.87-.63,7.78,3.35,6Z"></path><path class="cls-4" d="M116.52,350.9c-.12.16-.18.39-.29.56l-.34.52c-.06.11-.11.16-.17.28a1.68,1.68,0,0,1-.28.34c-.12.11-.18.23-.29.28a6.64,6.64,0,0,1-5.8,2.11c-.22-.06-.39-.06-.62-.12a8.62,8.62,0,0,1-1.25-.4,2.63,2.63,0,0,1-.62-.28c-.23-.11-.4-.23-.63-.34s-.4-.28-.63-.4-.16-.17-.28-.23a1.41,1.41,0,0,1-.45-.39l-.46-.46a1.9,1.9,0,0,0-.23-.28l-.39-.57a6.86,6.86,0,0,1-.35-.62c-.11-.23-.22-.41-.34-.63a4.57,4.57,0,0,1-.28-.63,15.23,15.23,0,0,1-.8-2.1c0-.17-.11-.34-.17-.51-.22-.8-.39-1.36-.39-1.36a2.07,2.07,0,0,0-.34-.68,9.44,9.44,0,0,1-.74-.86A3.2,3.2,0,0,0,99,343.5H98c-.23,0-4,.79-5.23,1.13-.4.11-.74.23-1.08.35-1.36.39-2.79.73-4.21,1-.11,0-.17.06-.28.06s-.17.05-.28.05c-1.26.23-2.5.46-3.76.62s-2.67.35-4,.41c-.39,0-.73.05-1.08.05A36,36,0,0,1,72,347h-.23a.33.33,0,0,1-.23-.06c-.28-.06-.57-.06-.85-.11,0,0-5.17-.63-7.33-1.82A7.92,7.92,0,0,1,60.65,342a10.58,10.58,0,0,1-.8-1.82c-.17-.56-.28-1.08-.4-1.64v-.69c-1.41-13.69-2.55-37.45,2.11-49.9a10.65,10.65,0,0,1,10.57-9.72,10.65,10.65,0,0,1,10.51,9,7.37,7.37,0,0,1,.12,1.65,5,5,0,0,1-.06,1c-.11.73-.34,1.53-.51,2.38a37.37,37.37,0,0,1-2.28,7.22c-.17.4-.74,1.65-.9,2.05-3.18,7.72-6.2,15.74-6.2,24.72a50.06,50.06,0,0,0,.23,5A2.89,2.89,0,0,0,75,333.73s3.81,1.08,5.18,1.36a33.86,33.86,0,0,0,3.91,1l4,.51c.06,0,.18,0,.23.06s.17,0,.23.05c2.67.35,5.34.69,7.84,1,.8.11,1.59.16,2.33.21a3.94,3.94,0,0,0,.8.08c1.14.17,2.16.28,3.07.39,1.3.18,2.33.35,2.95.46a.23.23,0,0,1,.17,0,.19.19,0,0,1,.17.06.19.19,0,0,1,.17.06h.17c.06,0,.12.06.17.06s2.45.57,4.6,1.3c.35.12.69.23,1,.35s.8.33,1.14.45a3.06,3.06,0,0,0,.62.28,2.63,2.63,0,0,1,.46.29c.11.11.29.22.4.34l.34.34A7.08,7.08,0,0,1,116.52,350.9Z"></path><path class="cls-1" d="M110.26,355.55a7.91,7.91,0,0,1-1-.07l-.32-.06-.36-.06-.13,0a8.37,8.37,0,0,1-1.2-.39,2.34,2.34,0,0,1-.48-.2l-.16-.09a2.89,2.89,0,0,1-.35-.19l-.28-.16a2.4,2.4,0,0,1-.38-.23,1.32,1.32,0,0,0-.25-.16,1,1,0,0,1-.28-.22,2,2,0,0,1-.62-.53l-.54-.57a.4.4,0,0,0-.1-.12l-.07-.09c-.11-.17-.22-.33-.38-.55a5.26,5.26,0,0,1-.35-.62c-.1-.2-.16-.3-.22-.4l-.16-.3a6.06,6.06,0,0,1-.32-.7,15,15,0,0,1-.8-2.13l-.16-.48c-.23-.82-.4-1.37-.4-1.37a1.79,1.79,0,0,0-.26-.54,5.22,5.22,0,0,1-.72-.81,2.6,2.6,0,0,0-1.06-.47H98c-.31,0-3.94.78-5.09,1.11-.35.1-.65.2-1,.3l-.11,0c-1.3.38-2.73.73-4.27,1h-.1a.64.64,0,0,1-.28.06.73.73,0,0,1-.28.05l-.29.06c-1.11.2-2.26.41-3.4.56-1.38.18-2.72.35-4,.41l-.56,0-.55,0a37.64,37.64,0,0,1-6.13-.17h-.17a.91.91,0,0,1-.41-.08l-.3,0-.47-.06c-.18,0-5.25-.65-7.47-1.87a8.26,8.26,0,0,1-2.92-3.26,10.74,10.74,0,0,1-.84-1.89c-.19-.67-.31-1.22-.42-1.72v-.79c-.84-8.1-3.18-35.77,2.11-50a11.13,11.13,0,0,1,22.08-.65,8.11,8.11,0,0,1,.12,1.73,5.4,5.4,0,0,1-.07,1.07c-.07.43-.18.9-.29,1.4-.08.32-.15.64-.22,1a38,38,0,0,1-2.32,7.35l-.32.72c-.22.48-.47,1-.57,1.29-3.25,7.88-6.16,15.69-6.16,24.53a48.93,48.93,0,0,0,.23,5,2.4,2.4,0,0,0,1.6,2h0s3.77,1.07,5.11,1.34c.41.1.84.23,1.27.35a15.81,15.81,0,0,0,2.6.61l.24,0c1.23.16,2.46.33,3.74.48a.88.88,0,0,1,.32.06,1.13,1.13,0,0,1,.26.07c2.63.34,5.25.68,7.71.95.75.11,1.47.16,2.17.21h.14a4.75,4.75,0,0,0,.77.07l2.29.29.84.11c1.31.17,2.35.35,3,.45a.64.64,0,0,1,.26.07l.17.05.14,0h.15l.17.07s2.49.58,4.65,1.32c.35.11.7.23,1,.35l.29.13.82.32.24.11a1,1,0,0,0,.33.15l.17.07a.65.65,0,0,0,.16.09,1.54,1.54,0,0,1,.38.28l.14.11a2.76,2.76,0,0,1,.25.21l.34.35a7.52,7.52,0,0,1,1.74,9.1l0,.06a1.24,1.24,0,0,0-.1.2,2,2,0,0,1-.18.36l-.34.51a.63.63,0,0,1-.1.15,2.31,2.31,0,0,1-.42.56.32.32,0,0,0-.08.09,1.81,1.81,0,0,1-.24.23A7.15,7.15,0,0,1,110.26,355.55Zm-5.69-3.78a1.49,1.49,0,0,1,.19.24l.53.55a1,1,0,0,0,.3.24.73.73,0,0,1,.23.19c.14.08.26.17.38.25l.25.16a3.45,3.45,0,0,1,.34.19l.29.16.18.09a1.61,1.61,0,0,0,.34.15,9.35,9.35,0,0,0,1.14.37l.12,0,.25,0,.37.07a6.1,6.1,0,0,0,5.3-2l.15-.1a1.26,1.26,0,0,1,.16-.2,1.3,1.3,0,0,0,.18-.21,1.76,1.76,0,0,1,.12-.2l.09-.13.33-.51a1.36,1.36,0,0,0,.1-.21,3.41,3.41,0,0,1,.17-.33,6.56,6.56,0,0,0-1.55-7.91l-.36-.37-.15-.12a2.76,2.76,0,0,1-.25-.21l-.14-.09-.16-.09a2.19,2.19,0,0,1-.49-.21l-.16-.08-.81-.32-.29-.12c-.27-.11-.6-.22-.93-.34-1.94-.65-4.13-1.18-4.5-1.27h-.06l-.23-.06h-.23l-.18-.12h-.11l-.08-.06c-.61-.11-1.64-.28-2.93-.45l-.83-.1c-.69-.09-1.44-.18-2.25-.3a3.59,3.59,0,0,1-.8-.07h-.1c-.72,0-1.46-.1-2.22-.21-2.49-.28-5.16-.61-7.84-1l-.37-.11c-1.37-.16-2.6-.32-3.83-.49l-.23,0a16.79,16.79,0,0,1-2.76-.64c-.42-.12-.82-.24-1.21-.33-1.36-.28-5-1.32-5.2-1.37a3.42,3.42,0,0,1-2.29-2.87c-.15-1.48-.23-3.2-.23-5.11,0-9,3-16.94,6.23-24.91l.59-1.32.33-.74a37.2,37.2,0,0,0,2.24-7.13c.07-.33.15-.67.23-1s.21-.92.28-1.35a5,5,0,0,0,.05-.89,7.43,7.43,0,0,0-.1-1.54,10.13,10.13,0,0,0-20.11.61l0,.14c-5.24,14-2.91,41.56-2.07,49.67v.74c.09.38.21.91.38,1.5a9.78,9.78,0,0,0,.75,1.7,7.41,7.41,0,0,0,2.55,2.9c2,1.12,7.09,1.74,7.14,1.75l.42.06.47.06.36,0a36.73,36.73,0,0,0,6,.17l.49,0a5.79,5.79,0,0,1,.61,0c1.24-.06,2.56-.22,3.92-.4,1.12-.15,2.26-.36,3.36-.55l.37-.07a1.51,1.51,0,0,1,.37-.06.54.54,0,0,1,.22-.06c1.5-.31,2.89-.64,4.13-1l.1,0c.31-.1.62-.21,1-.31,1.07-.3,5-1.15,5.37-1.15h1.07a3.78,3.78,0,0,1,1.62.73l.2.15V344c.16.19.52.59.59.66a2.37,2.37,0,0,1,.47.92h0s.17.56.39,1.35l.17.48a14.59,14.59,0,0,0,.77,2.06c.07.18.16.36.25.55l.18.32.19.36c.13.26.22.44.31.58S104.46,351.61,104.57,351.77Zm.91-12.51,0,0Zm-.17-.06,0,0Zm-17.23-2.13Zm-.16-.09a.4.4,0,0,0,.14.09Z"></path><path class="cls-7" d="M317.52,73.18,314,72.72a3.31,3.31,0,0,1-2.73-2.5c-.17-.7-.35-1.46-.58-2.16a3.32,3.32,0,0,1,1.1-3.54l2.74-2.16a3.24,3.24,0,0,0,.81-4.18h0a3.27,3.27,0,0,0-4.07-1.4l-3.2,1.28a3.35,3.35,0,0,1-3.61-.82,12.93,12.93,0,0,0-1.57-1.57,3.26,3.26,0,0,1-.81-3.6l1.28-3.2A3.36,3.36,0,0,0,302,44.8a3.23,3.23,0,0,0-4.18.81l-2.16,2.74a3.32,3.32,0,0,1-3.54,1.1c-.7-.23-1.46-.41-2.16-.58a3.31,3.31,0,0,1-2.5-2.73L287,42.65a3.23,3.23,0,0,0-6.4,0l-.47,3.49a3.29,3.29,0,0,1-2.5,2.73c-.69.17-1.45.35-2.15.58a3.34,3.34,0,0,1-3.55-1.1l-2.15-2.74a3.26,3.26,0,0,0-5.58,3.26l1.28,3.2a3.33,3.33,0,0,1-.82,3.6,14.54,14.54,0,0,0-1.57,1.57,3.24,3.24,0,0,1-3.6.82l-3.2-1.28a3.36,3.36,0,0,0-4.07,1.4h0a3.23,3.23,0,0,0,.81,4.18l2.73,2.16a3.31,3.31,0,0,1,1.11,3.54c-.23.7-.41,1.46-.58,2.16a3.31,3.31,0,0,1-2.74,2.5l-3.49.46a3.25,3.25,0,0,0-2.79,3.2,3.21,3.21,0,0,0,2.79,3.2l3.49.46a3.31,3.31,0,0,1,2.74,2.51c.17.69.35,1.45.58,2.15a3.33,3.33,0,0,1-1.11,3.55L253,90.4A3.26,3.26,0,0,0,256.28,96l3.2-1.28a3.33,3.33,0,0,1,3.6.82,14.54,14.54,0,0,0,1.57,1.57,3.24,3.24,0,0,1,.82,3.6l-1.28,3.2a3.37,3.37,0,0,0,1.39,4.07,3.24,3.24,0,0,0,4.19-.81l2.15-2.73a3.33,3.33,0,0,1,3.55-1.11c.7.23,1.46.41,2.15.58a3.28,3.28,0,0,1,2.5,2.74l.47,3.49a3.25,3.25,0,0,0,3.2,2.79,3.21,3.21,0,0,0,3.2-2.79l.46-3.49a3.3,3.3,0,0,1,2.5-2.74,11.09,11.09,0,0,0,1.63-.41,3.36,3.36,0,0,1,3.49,1.11l1.34,1.69A3.26,3.26,0,0,0,302,103l-.69-1.69a3.24,3.24,0,0,1,.93-3.72c.81-.7,1.51-1.4,2.26-2.15a3.26,3.26,0,0,1,3.61-.82l2.5,1a3.37,3.37,0,0,0,4.07-1.39h0a3.24,3.24,0,0,0-.81-4.19l-2-1.57a3.33,3.33,0,0,1-1.1-3.61c.23-.81.46-1.57.7-2.44a3.34,3.34,0,0,1,2.73-2.56l3.49-.46a3.25,3.25,0,0,0,2.79-3.2A3.33,3.33,0,0,0,317.52,73.18Zm-34.31,24A20.85,20.85,0,1,1,304.44,76,20.7,20.7,0,0,1,283.21,97.2Z"></path><path class="cls-1" d="M283.79,113.41a3.78,3.78,0,0,1-3.7-3.22l-.46-3.5a2.76,2.76,0,0,0-2.13-2.31l-.35-.09c-.61-.15-1.24-.31-1.84-.51a2.83,2.83,0,0,0-3,1l-2.15,2.73a3.75,3.75,0,0,1-4.83.94,3.86,3.86,0,0,1-1.61-4.69l1.28-3.2a2.75,2.75,0,0,0-.69-3.06,14.52,14.52,0,0,1-1.62-1.62,2.82,2.82,0,0,0-3-.66l-3.19,1.28A3.77,3.77,0,0,1,252.7,90l2.74-2.16a2.8,2.8,0,0,0,.94-3c-.19-.59-.35-1.22-.5-1.83l-.09-.35a2.8,2.8,0,0,0-2.31-2.13L250,80.08a3.68,3.68,0,0,1-3.23-3.7A3.76,3.76,0,0,1,250,72.69l3.5-.47a2.76,2.76,0,0,0,2.31-2.13l.09-.35c.15-.61.31-1.23.5-1.83a2.81,2.81,0,0,0-.95-3l-2.72-2.14a3.76,3.76,0,0,1-.94-4.84,3.86,3.86,0,0,1,4.69-1.61l3.2,1.28a2.73,2.73,0,0,0,3.06-.69,13.71,13.71,0,0,1,1.62-1.62,2.82,2.82,0,0,0,.66-3l-1.28-3.18a3.77,3.77,0,0,1,6.44-3.76L272.32,48a2.81,2.81,0,0,0,3,.93c.59-.19,1.22-.35,1.83-.5l.35-.09a2.8,2.8,0,0,0,2.13-2.31l.46-3.49a3.73,3.73,0,0,1,7.39,0l.47,3.49a2.79,2.79,0,0,0,2.13,2.32l.34.08c.61.15,1.24.31,1.84.51a2.85,2.85,0,0,0,3-.95l2.14-2.73a3.76,3.76,0,0,1,4.84-.93,3.84,3.84,0,0,1,1.61,4.68l-1.29,3.2a2.74,2.74,0,0,0,.7,3.06,13.77,13.77,0,0,1,1.62,1.62,2.81,2.81,0,0,0,3,.66l3.18-1.27a3.76,3.76,0,0,1,3.76,6.43l-2.74,2.16a2.81,2.81,0,0,0-.93,3c.19.59.34,1.21.49,1.82l.1.36a2.77,2.77,0,0,0,2.31,2.13l3.51.47a3.83,3.83,0,0,1,3.32,3.5,3.76,3.76,0,0,1-3.22,3.71l-3.49.47a2.84,2.84,0,0,0-2.32,2.19c-.16.58-.31,1.12-.47,1.65l-.23.8a2.85,2.85,0,0,0,.93,3.08l2,1.56a3.76,3.76,0,0,1,.94,4.84,3.86,3.86,0,0,1-4.69,1.61l-2.5-1a2.75,2.75,0,0,0-3.06.69c-.78.78-1.49,1.48-2.31,2.19a2.77,2.77,0,0,0-.8,3.14l.71,1.7a3.77,3.77,0,0,1-6.44,3.76l-1.34-1.69a2.86,2.86,0,0,0-3-.93,12.21,12.21,0,0,1-1.66.41,2.78,2.78,0,0,0-2.1,2.31l-.47,3.49A3.68,3.68,0,0,1,283.79,113.41Zm-9.27-10.75a3.77,3.77,0,0,1,1.1.17c.57.19,1.18.34,1.77.49l.35.09a3.79,3.79,0,0,1,2.88,3.15l.47,3.49a2.75,2.75,0,0,0,2.7,2.36,2.7,2.7,0,0,0,2.7-2.33l.47-3.52a3.81,3.81,0,0,1,2.88-3.16,12.59,12.59,0,0,0,1.58-.39,3.86,3.86,0,0,1,4,1.26l1.34,1.7a2.76,2.76,0,0,0,4.73-2.76l-.7-1.69a3.77,3.77,0,0,1,1.06-4.28c.8-.69,1.5-1.38,2.23-2.12a3.76,3.76,0,0,1,4.18-.94l2.49,1a2.86,2.86,0,0,0,3.46-1.2,2.75,2.75,0,0,0-.7-3.53l-2-1.57a3.82,3.82,0,0,1-1.28-4.15l.23-.79c.16-.53.31-1.05.46-1.63a3.86,3.86,0,0,1,3.16-2.93l3.48-.46a2.74,2.74,0,0,0,2.36-2.7,2.83,2.83,0,0,0-2.48-2.53L314,73.21a3.8,3.8,0,0,1-3.16-2.88l-.09-.36c-.14-.59-.29-1.19-.48-1.75a3.83,3.83,0,0,1,1.26-4.09L314.25,62a2.76,2.76,0,0,0-2.75-4.73l-3.21,1.28a3.82,3.82,0,0,1-4.16-.93,11.75,11.75,0,0,0-1.54-1.54,3.75,3.75,0,0,1-.94-4.18l1.28-3.19a2.86,2.86,0,0,0-1.2-3.46,2.75,2.75,0,0,0-3.53.7l-2.15,2.74A3.83,3.83,0,0,1,292,49.93c-.58-.19-1.19-.34-1.78-.49l-.35-.09A3.79,3.79,0,0,1,287,46.2l-.47-3.49a2.75,2.75,0,0,0-2.7-2.36,2.7,2.7,0,0,0-2.7,2.33l-.47,3.52a3.8,3.8,0,0,1-2.89,3.16l-.34.08c-.59.15-1.2.3-1.76.49a3.84,3.84,0,0,1-4.09-1.26l-2.16-2.75a2.76,2.76,0,0,0-4.73,2.75l1.28,3.21A3.83,3.83,0,0,1,265,56a11.75,11.75,0,0,0-1.54,1.54,3.74,3.74,0,0,1-4.18.94l-3.19-1.28a2.86,2.86,0,0,0-3.46,1.2,2.74,2.74,0,0,0,.7,3.53l2.73,2.15a3.84,3.84,0,0,1,1.28,4.1c-.19.56-.34,1.17-.49,1.76l-.09.36a3.78,3.78,0,0,1-3.15,2.87l-3.49.47a2.75,2.75,0,0,0-2.36,2.7,2.7,2.7,0,0,0,2.33,2.7l3.52.47a3.79,3.79,0,0,1,3.15,2.88l.09.35c.15.59.3,1.2.48,1.76a3.81,3.81,0,0,1-1.26,4.09l-2.74,2.16a2.76,2.76,0,0,0,2.75,4.73l3.21-1.28a3.83,3.83,0,0,1,4.16.93A11.79,11.79,0,0,0,265,96.71a3.77,3.77,0,0,1,.94,4.18l-1.28,3.19a2.86,2.86,0,0,0,1.2,3.46,2.75,2.75,0,0,0,3.53-.7l2.15-2.73A3.9,3.9,0,0,1,274.52,102.66Zm9.22-5h-.54a21.63,21.63,0,0,1-21-21,21.13,21.13,0,0,1,6.19-15.43A21.38,21.38,0,0,1,284,55a21.64,21.64,0,0,1,21,21,21.21,21.21,0,0,1-6.27,15.6A21,21,0,0,1,283.74,97.71ZM283.64,56a20.34,20.34,0,0,0-20.41,20.72,20.62,20.62,0,0,0,20,20h0A20.2,20.2,0,0,0,303.94,76a20.62,20.62,0,0,0-20-20Z"></path><circle class="cls-2" cx="309.92" cy="101.57" r="20"></circle><path class="cls-1" d="M309.92,122.07a20.5,20.5,0,1,1,20.5-20.5A20.53,20.53,0,0,1,309.92,122.07Zm0-40a19.5,19.5,0,1,0,19.5,19.5A19.53,19.53,0,0,0,309.92,82.07Z"></path><path class="cls-4" d="M317.89,91.77H316.4v23.28a1.86,1.86,0,0,1-1.85,1.85h0a1.86,1.86,0,0,1-1.84-1.85V91.77h-1.87a.87.87,0,0,1-.77-1.25l3.52-7.17a.87.87,0,0,1,1.55,0l3.53,7.17A.85.85,0,0,1,317.89,91.77Z"></path><path class="cls-1" d="M314.55,117.4a2.36,2.36,0,0,1-2.36-2.35V92.27h-1.37a1.35,1.35,0,0,1-1.15-.64,1.37,1.37,0,0,1-.07-1.33l3.52-7.17a1.35,1.35,0,0,1,1.23-.76h0a1.34,1.34,0,0,1,1.22.77l3.53,7.16a1.39,1.39,0,0,1-.06,1.34,1.34,1.34,0,0,1-1.15.63h-1v22.78A2.36,2.36,0,0,1,314.55,117.4Zm-.2-34a.36.36,0,0,0-.33.2l-3.53,7.17a.39.39,0,0,0,0,.36.33.33,0,0,0,.3.17h2.37v23.78a1.36,1.36,0,0,0,2.71,0V91.27h2a.32.32,0,0,0,.3-.16.37.37,0,0,0,0-.37l-3.53-7.17a.35.35,0,0,0-.32-.2Z"></path><rect class="cls-4" x="305.12" y="94.76" width="3.71" height="22.24" rx="1.86"></rect><path class="cls-1" d="M307,117.5a2.36,2.36,0,0,1-2.35-2.36V96.62a2.36,2.36,0,1,1,4.71,0v18.52A2.36,2.36,0,0,1,307,117.5Zm0-22.24a1.35,1.35,0,0,0-1.35,1.36v18.52a1.36,1.36,0,1,0,2.71,0V96.62A1.36,1.36,0,0,0,307,95.26Z"></path><rect class="cls-4" x="297.81" y="101.67" width="3.71" height="15.33" rx="1.86"></rect><path class="cls-1" d="M299.67,117.5a2.36,2.36,0,0,1-2.36-2.36V103.52a2.36,2.36,0,0,1,4.72,0v11.62A2.36,2.36,0,0,1,299.67,117.5Zm0-15.33a1.36,1.36,0,0,0-1.36,1.35v11.62a1.36,1.36,0,1,0,2.72,0V103.52A1.36,1.36,0,0,0,299.67,102.17Z"></path><path class="cls-5" d="M62.15,284.13c-2.4,3.93-6.82,15.53-3.94,19.12,5.51,6.86,16,4.56,21.27,1.84,3.46-1.79,3.44-8.95,3.58-14,.09-3.43-2.2-13.08-9-13.66C66.93,276.78,65.52,278.62,62.15,284.13Z"></path><path class="cls-1" d="M68.7,308.25c-4.07,0-8.11-1.23-10.88-4.69-3.23-4,1.85-16.33,3.9-19.69,3.47-5.68,5-7.6,12.42-7,7,.6,9.52,10.25,9.42,14.17l0,.81c-.13,5.27-.29,11.83-3.83,13.66A25.08,25.08,0,0,1,68.7,308.25Zm3-30.47c-4.82,0-6.17,1.8-9.11,6.61h0c-2.49,4.08-6.57,15.31-4,18.55,5.16,6.43,15.18,4.54,20.65,1.7,3-1.56,3.17-8.05,3.29-12.8l0-.81c.09-3.52-2.3-12.61-8.51-13.14C73.17,277.81,72.39,277.78,71.68,277.78Z"></path><path class="cls-6" d="M73.66,264.73c.68-1.91.6-.79.94-3.89a19,19,0,0,0,.17-3.27,20.16,20.16,0,0,0-.38-2.7,4,4,0,0,1,.32-4,3.34,3.34,0,0,1,.76-.89,2.89,2.89,0,0,1,1.07-.69,3.81,3.81,0,0,1,2.21-.31,4.09,4.09,0,0,1,1.2.31,6.5,6.5,0,0,0,4-.57,8.22,8.22,0,0,0,1.77-1.13A7.44,7.44,0,0,0,87,246.1a4.28,4.28,0,0,0,.57-1.2,6.52,6.52,0,0,0,.38-2.2,10.59,10.59,0,0,1,.75-1.71,1.61,1.61,0,0,1,.26-.38,9.41,9.41,0,0,1,1.45-1.76,8.49,8.49,0,0,1,2.14-1.45h0c.07-.07.19-.07.26-.13a8.38,8.38,0,0,1,3.84-.76,14.21,14.21,0,0,1,2,3.73,17,17,0,0,1,.57,2.2,4.22,4.22,0,0,0,.88-4.73c-.13-.25-.19-.44-.31-.63s-.07-.12-.13-.12a17.72,17.72,0,0,0-31,17"></path><path class="cls-6" d="M87.15,243.35s2.88-4.62,6.95-4.59,4.54,1,4.54,1l-1-4.32-8.3.27Z"></path><path class="cls-5" d="M335.57,273.78V340a3.51,3.51,0,0,1,0,.56c-.47,11.53-15.86,20.79-34.77,20.79s-34.28-9.26-34.74-20.79a2.64,2.64,0,0,1,0-.56v-66.2c0,11.79,15.58,21.36,34.78,21.36S335.57,285.57,335.57,273.78Z"></path><path class="cls-1" d="M300.77,361.83c-19.28,0-34.76-9.34-35.24-21.27a3.22,3.22,0,0,1,0-.58v-66.2h1c0,11.5,15.38,20.86,34.28,20.86s34.3-9.36,34.3-20.86h1V340a3.55,3.55,0,0,1,0,.65C335.56,352.49,320.07,361.83,300.77,361.83ZM266.49,279v61a2.48,2.48,0,0,0,0,.47c.46,11.27,15.82,20.38,34.25,20.38s33.82-9.11,34.27-20.31a3.71,3.71,0,0,0,0-.54V279c-3.77,9.57-17.71,16.69-34.3,16.69S270.26,288.52,266.49,279Z"></path><path class="cls-5" d="M298.05,311.85h0v-.56A2.64,2.64,0,0,0,298.05,311.85Z"></path><path class="cls-1" d="M298.64,312.35h-1.13v-1.06h1v.12a2,2,0,0,0,0,.35Z"></path><path class="cls-5" d="M335.57,272.4v1.38c0,11.79-15.58,21.36-34.8,21.36S266,285.57,266,273.78V272.4Z"></path><path class="cls-1" d="M300.77,295.64c-19.45,0-35.28-9.81-35.28-21.86V271.9h70.58v1.88C336.07,285.83,320.24,295.64,300.77,295.64ZM266.49,272.9v.88c0,11.5,15.38,20.86,34.28,20.86s34.3-9.36,34.3-20.86v-.88Z"></path><path class="cls-5" d="M335.57,273.78c0,11.79-15.58,21.36-34.8,21.36S266,285.57,266,273.78a9.14,9.14,0,0,1,.09-1.38c1.14-11.14,16.24-20,34.69-20s33.58,8.84,34.72,20A10.64,10.64,0,0,1,335.57,273.78Z"></path><path class="cls-1" d="M300.77,295.64c-19.45,0-35.28-9.81-35.28-21.86a9.69,9.69,0,0,1,.09-1.45c1.17-11.43,16.63-20.41,35.19-20.41s34,9,35.21,20.43a9.59,9.59,0,0,1,.09,1.43C336.07,285.83,320.24,295.64,300.77,295.64Zm0-42.72c-18,0-33.08,8.58-34.2,19.53a9.41,9.41,0,0,0-.08,1.33c0,11.5,15.38,20.86,34.28,20.86s34.3-9.36,34.3-20.86a8.27,8.27,0,0,0-.08-1.31C333.87,261.5,318.84,252.92,300.77,252.92Z"></path><path class="cls-8" d="M286.33,305.74a29.4,29.4,0,0,1,4.8-.39c3.24,0,5.54.78,7.07,2.18a7.94,7.94,0,0,1,2.49,6.27,9.32,9.32,0,0,1-2.51,6.79c-1.66,1.64-4.36,2.52-7.75,2.52a35.89,35.89,0,0,1-4.1-.21Zm2.26,15.45a18.4,18.4,0,0,0,2.28.1c4.85,0,7.44-2.69,7.44-7.41,0-4.12-2.31-6.74-7.08-6.74a12.72,12.72,0,0,0-2.64.23Z"></path><path class="cls-8" d="M303.59,305.74a20.12,20.12,0,0,1,4.12-.39c2.26,0,3.71.39,4.77,1.27a3.67,3.67,0,0,1,1.48,3.09,4.13,4.13,0,0,1-2.95,3.83v.08a4.45,4.45,0,0,1,3.6,4.36,4.62,4.62,0,0,1-1.5,3.5c-1.2,1.11-3.17,1.63-6,1.63a27,27,0,0,1-3.5-.21Zm2.26,7.15h2c2.35,0,3.76-1.27,3.76-2.95,0-2-1.53-2.85-3.82-2.85a9.6,9.6,0,0,0-2,.15Zm0,8.35a11.8,11.8,0,0,0,1.89.11c2.33,0,4.49-.86,4.49-3.4,0-2.36-2.05-3.37-4.52-3.37h-1.86Z"></path><path class="cls-4" d="M222.43,312.6a9.77,9.77,0,0,1-3.56,7.61,9,9,0,0,1-5.69,2.05H186a8.38,8.38,0,0,1,0-16.75c.27,0,.55,0,.81,0h.3a4.59,4.59,0,0,0,4-2.27h0a11.26,11.26,0,0,1,17.62-1.65,1.14,1.14,0,0,1,.15.16,4.6,4.6,0,0,0,.41.47,3,3,0,0,0,2,.8,3.26,3.26,0,0,0,.77-.05h0a7.73,7.73,0,0,1,1.08-.07A9.48,9.48,0,0,1,222.43,312.6Z"></path><path class="cls-1" d="M213.18,322.76H186A8.88,8.88,0,0,1,186,305a8.12,8.12,0,0,1,.86,0h.25a4.07,4.07,0,0,0,3.53-2,11.93,11.93,0,0,1,9.91-5.4,11.71,11.71,0,0,1,8.51,3.65l.19.2a3.44,3.44,0,0,0,.35.41,2.48,2.48,0,0,0,1.68.67h.12a2,2,0,0,0,.52,0,8.67,8.67,0,0,1,1.21-.08,10,10,0,0,1,9.78,10.16,10.24,10.24,0,0,1-3.74,8A9.43,9.43,0,0,1,213.18,322.76ZM186,306a7.88,7.88,0,0,0,0,15.75h27.2a8.4,8.4,0,0,0,5.37-1.94,9.23,9.23,0,0,0,3.38-7.22,9,9,0,0,0-8.78-9.16,8.47,8.47,0,0,0-1,.06,2.77,2.77,0,0,1-.72.06h-.11a3.44,3.44,0,0,1-2.36-.94,5.7,5.7,0,0,1-.46-.52l-.08-.09a10.8,10.8,0,0,0-7.83-3.38,10.94,10.94,0,0,0-9.06,4.93,5.07,5.07,0,0,1-4.38,2.49h-.27Z"></path><circle class="cls-6" cx="67.74" cy="229.63" r="9.48"></circle><path class="cls-2" d="M328.67,120.76c-.78,0-12.86,2.84-18.38,7-5,3.78-9,6.57-12.86,12a52.11,52.11,0,0,0-9.36,28.8v1.5L288,205.64h0c15.77,0,28.8-14.26,29.36-32.36a39.58,39.58,0,0,0-.95-10,19.84,19.84,0,0,1-.67-3.17C313.24,141.53,320.93,130.23,328.67,120.76Z"></path><path class="cls-1" d="M288,206.14h-.5l.06-37.59A52.37,52.37,0,0,1,297,139.46c3.57-5,7.35-7.86,11.74-11.16l1.23-.92c5.72-4.34,18-7.08,18.65-7.12l1.15-.08-.73.9c-7.51,9.17-15.3,20.51-12.81,39a19.3,19.3,0,0,0,.65,3.09,39.67,39.67,0,0,1,1,10.14C317.3,191.71,304.19,206.14,288,206.14Zm39.41-84.62c-3.42.79-12.44,3.33-16.83,6.65l-1.23.93c-4.5,3.38-8.05,6.05-11.53,10.94a51.46,51.46,0,0,0-9.26,28.52v1.49l-.06,35.08c15.4-.29,27.81-14.18,28.36-31.87a38.54,38.54,0,0,0-.94-9.84,19.91,19.91,0,0,1-.67-3.21C312.81,142.05,320.06,130.67,327.42,121.52Z"></path><path class="cls-4" d="M15.83,300.47V287.9A33.73,33.73,0,0,0,6.15,268,28.84,28.84,0,0,0,.5,263.45v19.92a23.15,23.15,0,0,0,7.91,17.38c.78.64,1.63,1.27,2.4,1.91a12.83,12.83,0,0,1,2.41,2.75,17.82,17.82,0,0,1,2.54,5.16v-10.1h.07Z"></path><path class="cls-1" d="M16.26,314.21l-1-3.5a17,17,0,0,0-2.47-5A12.06,12.06,0,0,0,10.49,303l-1.18-.94c-.41-.32-.82-.64-1.21-1A23.67,23.67,0,0,1,0,283.37v-20.8l.76.45a29.38,29.38,0,0,1,5.74,4.6,34.16,34.16,0,0,1,9.83,20.22V301h-.07ZM1,264.35v19a22.63,22.63,0,0,0,7.74,17l1.19.95c.4.31.81.63,1.2.95a13.18,13.18,0,0,1,2.51,2.87,21.42,21.42,0,0,1,1.62,2.75V300h.07V287.9A33.12,33.12,0,0,0,5.8,268.33,29.62,29.62,0,0,0,1,264.35Z"></path><path class="cls-4" d="M10.6,290c4.81,3.61,5.16,10.81,5.16,10.81"></path><path class="cls-1" d="M15.26,300.85c0-.07-.4-7-5-10.44l.6-.8c4.94,3.71,5.34,10.89,5.36,11.19Z"></path><circle class="cls-2" cx="75.4" cy="90.2" r="53.5"></circle><path class="cls-1" d="M75.4,144.2a54,54,0,1,1,54-54A54.06,54.06,0,0,1,75.4,144.2Zm0-107a53,53,0,1,0,53,53A53.06,53.06,0,0,0,75.4,37.2Z"></path><polygon class="cls-1" points="43.52 49.59 43.52 48.59 43.52 48.59 43.52 49.59"></polygon><rect class="cls-3" x="42.88" y="58.57" width="33.04" height="4.98" rx="2.49"></rect><path class="cls-1" d="M73.44,64H45.37a3,3,0,1,1,0-6H73.44a3,3,0,1,1,0,6Zm-28.07-5a2,2,0,1,0,0,4H73.44a2,2,0,1,0,0-4Z"></path><rect class="cls-4" x="83.54" y="58.57" width="19.65" height="4.98" rx="2.49"></rect><path class="cls-1" d="M100.7,64H86a3,3,0,0,1,0-6H100.7a3,3,0,1,1,0,6ZM86,59.07a2,2,0,0,0,0,4H100.7a2,2,0,1,0,0-4Z"></path><rect class="cls-5" x="42.88" y="70.66" width="17.3" height="4.98" rx="2.49"></rect><path class="cls-1" d="M57.69,76.14H45.37a3,3,0,1,1,0-6H57.69a3,3,0,0,1,0,6Zm-12.32-5a2,2,0,0,0,0,4H57.69a2,2,0,0,0,0-4Z"></path><rect class="cls-7" x="64.61" y="70.66" width="17.3" height="4.98" rx="2.49"></rect><path class="cls-1" d="M79.42,76.14H67.1a3,3,0,1,1,0-6H79.42a3,3,0,0,1,0,6Zm-12.32-5a2,2,0,0,0,0,4H79.42a2,2,0,0,0,0-4Z"></path><rect class="cls-4" x="85.89" y="70.66" width="17.3" height="4.98" rx="2.49"></rect><path class="cls-1" d="M100.7,76.14H88.38a3,3,0,0,1,0-6H100.7a3,3,0,0,1,0,6Zm-12.32-5a2,2,0,0,0,0,4H100.7a2,2,0,0,0,0-4Z"></path><rect class="cls-4" x="42.88" y="80.99" width="29.23" height="4.98" rx="2.49"></rect><path class="cls-1" d="M69.63,86.47H45.37a3,3,0,0,1,0-6H69.63a3,3,0,0,1,0,6Zm-24.26-5a2,2,0,0,0,0,4H69.63a2,2,0,1,0,0-4Z"></path><rect class="cls-5" x="78.13" y="80.99" width="25.06" height="4.98" rx="2.49"></rect><path class="cls-1" d="M100.7,86.47H80.62a3,3,0,0,1,0-6H100.7a3,3,0,0,1,0,6Zm-20.08-5a2,2,0,0,0,0,4H100.7a2,2,0,0,0,0-4Z"></path><rect class="cls-7" x="42.88" y="92.77" width="17.3" height="4.98" rx="2.49"></rect><path class="cls-1" d="M57.69,98.24H45.37a3,3,0,1,1,0-6H57.69a3,3,0,1,1,0,6Zm-12.32-5a2,2,0,1,0,0,4H57.69a2,2,0,1,0,0-4Z"></path><rect class="cls-3" x="42.88" y="103.06" width="43.71" height="4.98" rx="2.49"></rect><path class="cls-1" d="M84.11,108.54H45.37a3,3,0,1,1,0-6H84.11a3,3,0,0,1,0,6Zm-38.74-5a2,2,0,1,0,0,4H84.11a2,2,0,0,0,0-4Z"></path><rect class="cls-7" x="92.43" y="103.06" width="10.76" height="4.98" rx="2.49"></rect><path class="cls-1" d="M100.7,108.54H94.91a3,3,0,0,1,0-6h5.79a3,3,0,0,1,0,6Zm-5.79-5a2,2,0,0,0,0,4h5.79a2,2,0,0,0,0-4Z"></path><rect class="cls-4" x="42.88" y="113.93" width="21.26" height="4.98" rx="2.49"></rect><path class="cls-1" d="M61.66,119.41H45.37a3,3,0,1,1,0-6H61.66a3,3,0,1,1,0,6Zm-16.29-5a2,2,0,1,0,0,4H61.66a2,2,0,1,0,0-4Z"></path><rect class="cls-5" x="68.29" y="113.93" width="34.9" height="4.98" rx="2.49"></rect><path class="cls-1" d="M100.7,119.41H70.78a3,3,0,1,1,0-6H100.7a3,3,0,0,1,0,6Zm-29.92-5a2,2,0,1,0,0,4H100.7a2,2,0,0,0,0-4Z"></path><circle class="cls-7" cx="73.3" cy="164.14" r="33.84"></circle><path class="cls-1" d="M73.3,198.48a34.34,34.34,0,1,1,34.34-34.34A34.38,34.38,0,0,1,73.3,198.48Zm0-67.68a33.34,33.34,0,1,0,33.34,33.34A33.38,33.38,0,0,0,73.3,130.8Z"></path><path class="cls-8" d="M50.37,160.64c0-1.71-.06-3.1-.11-4.37h2.15l.14,2.3h.06A5.18,5.18,0,0,1,57.36,156c3.26,0,5.7,2.73,5.7,6.77,0,4.81-3,7.19-6.11,7.19a4.71,4.71,0,0,1-4.12-2.1h-.06v7.27h-2.4Zm2.4,3.57a3.85,3.85,0,0,0,.11,1,3.75,3.75,0,0,0,3.65,2.85c2.57,0,4.07-2.1,4.07-5.17,0-2.65-1.41-4.95-4-4.95a3.83,3.83,0,0,0-3.67,3,3.59,3.59,0,0,0-.17,1Z"></path><path class="cls-8" d="M66.09,150h2.44v8.38h0a4.57,4.57,0,0,1,1.75-1.74,4.88,4.88,0,0,1,2.48-.66c1.8,0,4.68,1.1,4.68,5.69v8H75.05V162c0-2.16-.8-4-3.09-4a3.54,3.54,0,0,0-3.27,2.41,3.29,3.29,0,0,0-.16,1.16v8.07H66.09Z"></path><path class="cls-8" d="M81.44,160.64c0-1.71-.06-3.1-.11-4.37h2.15l.14,2.3h.06A5.18,5.18,0,0,1,88.43,156c3.26,0,5.7,2.73,5.7,6.77,0,4.81-3,7.19-6.11,7.19a4.71,4.71,0,0,1-4.12-2.1h-.06v7.27h-2.4Zm2.4,3.57a3.85,3.85,0,0,0,.11,1,3.75,3.75,0,0,0,3.65,2.85c2.57,0,4.07-2.1,4.07-5.17,0-2.65-1.41-4.95-4-4.95a3.83,3.83,0,0,0-3.67,3,3.59,3.59,0,0,0-.17,1Z"></path><path class="cls-1" d="M135.33,77.07h0v0l-.49,0c0-.13,0-.26,0-.39l0-.53h1v1h-.5Z"></path><circle class="cls-4" cx="160.2" cy="70.02" r="43.12"></circle><path class="cls-1" d="M160.2,113.64A43.62,43.62,0,1,1,203.82,70,43.66,43.66,0,0,1,160.2,113.64Zm0-86.24A42.62,42.62,0,1,0,202.82,70,42.66,42.66,0,0,0,160.2,27.4Z"></path><path class="cls-5" d="M140.21,80.47a3.53,3.53,0,0,1-1.87-.5l-13.61-8.24a3.36,3.36,0,0,1-1.75-3,3.7,3.7,0,0,1,1.75-3.12l13.61-8.37a3.62,3.62,0,0,1,3.87,6.12l-8.62,5.37L142.21,74a3.52,3.52,0,0,1,1.24,4.87A4.32,4.32,0,0,1,140.21,80.47Z"></path><path class="cls-1" d="M140.21,81a4,4,0,0,1-2.13-.58l-13.61-8.24a3.85,3.85,0,0,1-2-3.42,4.25,4.25,0,0,1,2-3.54l13.62-8.37a4.12,4.12,0,0,1,4.42,7l-8,4.95,7.93,4.83A3.94,3.94,0,0,1,144.34,76a4,4,0,0,1-.46,3.08A4.87,4.87,0,0,1,140.21,81Zm0-23.75a3.38,3.38,0,0,0-1.68.46L125,66a3.2,3.2,0,0,0-1.51,2.7A2.85,2.85,0,0,0,125,71.29l13.62,8.25a3,3,0,0,0,1.62.43,3.86,3.86,0,0,0,2.87-1.46,3,3,0,0,0-1.12-4.1l-9.32-5.68,9.3-5.79a3.25,3.25,0,0,0,1-4.33A3.2,3.2,0,0,0,140.26,57.22Z"></path><path class="cls-5" d="M177.66,80.47a3.59,3.59,0,0,1-3.24-2A3.73,3.73,0,0,1,176,73.6l10-5-10.24-5.12A3.63,3.63,0,0,1,179,57l16.73,8.37a3.63,3.63,0,0,1,0,6.49l-16.48,8.24A3.88,3.88,0,0,1,177.66,80.47Z"></path><path class="cls-1" d="M177.66,81A4.11,4.11,0,0,1,174,78.69a4.24,4.24,0,0,1,1.82-5.53l9.12-4.56-9.34-4.67a4.13,4.13,0,0,1,3.68-7.39L196,64.91a4.13,4.13,0,0,1,0,7.39l-16.48,8.24A4.26,4.26,0,0,1,177.66,81Zm-.24-23.84a3.1,3.1,0,0,0-2.8,1.71A3.16,3.16,0,0,0,176,63l11.13,5.56-10.88,5.45a3.21,3.21,0,0,0-1.4,4.19A3.09,3.09,0,0,0,177.66,80a3.28,3.28,0,0,0,1.4-.33l16.48-8.24a3.13,3.13,0,0,0,0-5.6l-16.73-8.36A3.3,3.3,0,0,0,177.42,57.13Z"></path><path class="cls-5" d="M157.44,79.59a4.21,4.21,0,0,1-1.25-.25,3.66,3.66,0,0,1-2.12-4.62l5.87-15.36a3.59,3.59,0,0,1,6.74,2.5l-5.87,15.36A3.48,3.48,0,0,1,157.44,79.59Z"></path><path class="cls-1" d="M157.44,80.09a5.16,5.16,0,0,1-1.41-.27,4.18,4.18,0,0,1-2.44-5.26l5.88-15.37A4.09,4.09,0,0,1,167.15,62L161.28,77.4A4,4,0,0,1,157.44,80.09Zm5.9-22.55a3.15,3.15,0,0,0-2.94,2L154.53,74.9a3.17,3.17,0,0,0,1.85,4,3.72,3.72,0,0,0,1.06.21,3,3,0,0,0,2.9-2l5.87-15.38a3.16,3.16,0,0,0-1.84-4A3.09,3.09,0,0,0,163.34,57.54Z"></path><path class="cls-1" d="M234.92,304.79v-1a12,12,0,0,0,12-12h1A13,13,0,0,1,234.92,304.79Z"></path><path class="cls-1" d="M247.88,292.08h-1a13,13,0,0,1,13-13v1A12,12,0,0,0,247.88,292.08Z"></path><circle class="cls-7" cx="233.83" cy="304.48" r="3.83"></circle><path class="cls-1" d="M233.83,308.81a4.33,4.33,0,1,1,4.33-4.33A4.33,4.33,0,0,1,233.83,308.81Zm0-7.66a3.33,3.33,0,1,0,3.33,3.33A3.33,3.33,0,0,0,233.83,301.15Z"></path><circle class="cls-7" cx="260.03" cy="279.62" r="3.83"></circle><path class="cls-1" d="M260,284a4.34,4.34,0,1,1,4.34-4.34A4.34,4.34,0,0,1,260,284Zm0-7.67a3.34,3.34,0,1,0,3.34,3.33A3.34,3.34,0,0,0,260,276.29Z"></path><path class="cls-1" d="M247.88,328.63h-1a12,12,0,0,0-12-11.95v-1A13,13,0,0,1,247.88,328.63Z"></path><path class="cls-1" d="M259.84,341.35a13,13,0,0,1-13-13h1a12,12,0,0,0,12,12Z"></path><circle class="cls-7" cx="233.83" cy="315.99" r="3.83"></circle><path class="cls-1" d="M233.83,320.32a4.33,4.33,0,1,1,4.33-4.33A4.33,4.33,0,0,1,233.83,320.32Zm0-7.66a3.33,3.33,0,1,0,3.33,3.33A3.33,3.33,0,0,0,233.83,312.66Z"></path><circle class="cls-7" cx="260.03" cy="340.85" r="3.83"></circle><path class="cls-1" d="M260,345.18a4.34,4.34,0,1,1,4.34-4.33A4.33,4.33,0,0,1,260,345.18Zm0-7.67a3.34,3.34,0,1,0,3.34,3.34A3.34,3.34,0,0,0,260,337.51Z"></path><circle class="cls-4" cx="218.94" cy="97.74" r="12.64"></circle><path class="cls-1" d="M218.94,110.89a13.15,13.15,0,1,1,13.14-13.15A13.16,13.16,0,0,1,218.94,110.89Zm0-25.29a12.15,12.15,0,1,0,12.14,12.14A12.16,12.16,0,0,0,218.94,85.6Z"></path><path class="cls-5" d="M225.69,101.73a8.2,8.2,0,0,1-6.93-3.86,7.8,7.8,0,0,1,1,3.8,8,8,0,0,1-1.1,4,7.87,7.87,0,0,1-1-4,7.16,7.16,0,0,1,1-3.8,8.18,8.18,0,0,1-7.06,3.74h0a8.21,8.21,0,0,1,7.06-3.87,8.14,8.14,0,0,1-6.94-4h0a8.32,8.32,0,0,1,7,3.87,7.73,7.73,0,0,1-1-3.81,7.62,7.62,0,0,1,1.1-3.92h0a7.34,7.34,0,0,1,1,4,7.24,7.24,0,0,1-1,3.8,8.17,8.17,0,0,1,7.06-3.74,8.2,8.2,0,0,1-7.06,3.86A8.12,8.12,0,0,1,225.69,101.73Z"></path><path class="cls-1" d="M218.64,106.66l-.44-.75a8.41,8.41,0,0,1-1.11-4.24,8.1,8.1,0,0,1,.14-1.49,8.7,8.7,0,0,1-5.66,1.93l-.87,0,.45-.74a8.54,8.54,0,0,1,4.62-3.64,8.44,8.44,0,0,1-4.5-3.77l-.42-.75h.85a8.83,8.83,0,0,1,5.65,2.07,8.31,8.31,0,0,1-.14-1.51,8.15,8.15,0,0,1,1.18-4.17l.43-.75.43.75a7.73,7.73,0,0,1,1.11,4.26,8,8,0,0,1-.13,1.47,8.68,8.68,0,0,1,5.66-1.93h.86l-.45.75a8.53,8.53,0,0,1-4.63,3.64,8.51,8.51,0,0,1,4.46,3.7l.43.75h-.87a8.72,8.72,0,0,1-5.58-2,8.1,8.1,0,0,1,.13,1.49,8.35,8.35,0,0,1-1.17,4.24Zm0-7.81a6.78,6.78,0,0,0-.59,2.82,7.6,7.6,0,0,0,.55,2.87,7.27,7.27,0,0,0,0-5.69Zm1-.54a7.76,7.76,0,0,0,5,2.86A7.66,7.66,0,0,0,219.68,98.31Zm-2,0a7.74,7.74,0,0,0-5.13,2.77A7.63,7.63,0,0,0,217.7,98.3Zm.94-.44.05,0,.12-.07v-.19l-.11-.07-.07,0Zm6.25-3.44a7.65,7.65,0,0,0-5.14,2.77A7.81,7.81,0,0,0,224.89,94.42Zm-12.22-.17a7.6,7.6,0,0,0,5.16,2.93A7.82,7.82,0,0,0,212.67,94.25Zm6.15-3.32a6.89,6.89,0,0,0-.61,2.82,7.31,7.31,0,0,0,.58,2.86,6.86,6.86,0,0,0,.57-2.79A6.63,6.63,0,0,0,218.82,90.93Z"></path><rect class="cls-1" x="15.4" y="191.33" width="1" height="120.21"></rect><circle class="cls-5" cx="10.12" cy="206.54" r="5"></circle><path class="cls-1" d="M10.13,212a5.35,5.35,0,0,1-.79-.06,5.5,5.5,0,1,1,4.08-1A5.42,5.42,0,0,1,10.13,212Zm0-10a4.47,4.47,0,1,0,.64,0A4.58,4.58,0,0,0,10.11,202Z"></path><circle class="cls-5" cx="22.41" cy="222.82" r="6.21"></circle><path class="cls-1" d="M22.41,229.53a6.71,6.71,0,1,1,6.71-6.71A6.72,6.72,0,0,1,22.41,229.53Zm0-12.42a5.71,5.71,0,1,0,5.71,5.71A5.71,5.71,0,0,0,22.41,217.11Z"></path><circle class="cls-8" cx="25.89" cy="220.77" r="1.21"></circle><circle class="cls-5" cx="15.82" cy="191.92" r="4.47"></circle><path class="cls-1" d="M15.82,196.89a5,5,0,1,1,5-5A5,5,0,0,1,15.82,196.89Zm0-8.93a4,4,0,1,0,4,4A4,4,0,0,0,15.82,188Z"></path><circle class="cls-8" cx="7.8" cy="204.72" r="1.06"></circle><path class="cls-6" d="M325,29.07l-.38-3.23a13,13,0,0,0-11.78-11.78L310,13.68l3-.38A12.92,12.92,0,0,0,324.59,2.09L325,0l.38,2.09A13.12,13.12,0,0,0,337.13,13.3l3,.38-3,.38a13.32,13.32,0,0,0-11.59,11.78Z"></path><path class="cls-4" d="M41.09,14.46A31,31,0,0,1,35.61,40.2l-.77,1a20.16,20.16,0,0,1-2.23,2.41l-.51.48-.47.44a18.35,18.35,0,0,1-2,1.63c-.47.36-1,.76-1.48,1.07A31,31,0,0,1,2,51.13l0,0,0,0c.73-.68,1.49-1.32,2.21-1.91a31.07,31.07,0,0,1,27.16-5.39c.21,0,.45.14.66.18h.08l0,0a1.32,1.32,0,0,1-.1-.54h0a31.08,31.08,0,0,1,7.08-26.77A22.21,22.21,0,0,1,41.09,14.46Z"></path><path class="cls-9" d="M11,53a31.48,31.48,0,0,1-9.14-1.36l-.13,0-.44-.46.33-.38c.76-.71,1.51-1.34,2.27-2a31.7,31.7,0,0,1,27.61-5.48h0a31.7,31.7,0,0,1,7.23-27,25.73,25.73,0,0,1,2-2.17l.63-.59.2.85A31.53,31.53,0,0,1,36,40.51l-.78,1A19.83,19.83,0,0,1,33,44l-1,.92a20,20,0,0,1-2,1.67l-.11.08a16.72,16.72,0,0,1-1.4,1A31.28,31.28,0,0,1,11,53ZM2.88,50.88a30.34,30.34,0,0,0,25-4.09c.46-.29.9-.63,1.33-1l.12-.09a20.66,20.66,0,0,0,1.86-1.51,30.68,30.68,0,0,0-26.72,5.3C3.93,50,3.4,50.42,2.88,50.88ZM40.79,15.45c-.47.48-.92,1-1.33,1.46a30.69,30.69,0,0,0-7,26.14,19.82,19.82,0,0,0,2-2.18l.78-1A30.51,30.51,0,0,0,40.79,15.45Z"></path><path class="cls-3" d="M365.13,310a7.7,7.7,0,0,1-5.89,7.49,7.24,7.24,0,0,1-1.81.22,7.71,7.71,0,0,1,0-15.42,7.44,7.44,0,0,1,2.12.3A7.71,7.71,0,0,1,365.13,310Z"></path><path class="cls-1" d="M357.43,318.19a8.21,8.21,0,0,1,0-16.42,8.09,8.09,0,0,1,2.27.32,8.21,8.21,0,0,1-.34,15.87A8,8,0,0,1,357.43,318.19Zm0-15.42a7.21,7.21,0,1,0,0,14.42,7.05,7.05,0,0,0,1.69-.2,7.21,7.21,0,0,0-1.69-14.22Z"></path><path class="cls-3" d="M363.65,289.7a6.21,6.21,0,0,1-5.06,6.1,5.5,5.5,0,0,1-1.16.12,6.22,6.22,0,0,1-2.36-12,6,6,0,0,1,2.36-.47A6.23,6.23,0,0,1,363.65,289.7Z"></path><path class="cls-1" d="M357.43,296.42a6.72,6.72,0,0,1-2.55-12.94,6.42,6.42,0,0,1,2.55-.51,6.72,6.72,0,0,1,1.25,13.32A5.57,5.57,0,0,1,357.43,296.42Zm0-12.45a5.59,5.59,0,0,0-2.16.43,5.72,5.72,0,0,0,2.16,11,4.59,4.59,0,0,0,1.06-.11A5.72,5.72,0,0,0,357.43,284Z"></path><path class="cls-3" d="M361,332.88a6.22,6.22,0,0,1-6.22,6.22,5.88,5.88,0,0,1-2.22-.42,6.21,6.21,0,0,1,2.22-12,6.21,6.21,0,0,1,6.22,6.22Z"></path><path class="cls-1" d="M354.81,339.6a6.45,6.45,0,0,1-2.41-.45,6.71,6.71,0,1,1,2.41.45Zm0-12.44a5.71,5.71,0,0,0-2,11,5.37,5.37,0,0,0,2,.39,5.72,5.72,0,0,0,2.19-11A5.85,5.85,0,0,0,354.81,327.16Z"></path></svg> 